# xmcd
#
# Track frame offsets:
#	150
#	19655
#	32297
#	50417
#	68010
#	86557
#	96537
#	109585
#	122210
#	141060
#	153187
#	167092
#
# Disc length: 2395 seconds
#
# Revision: 1
# Processed by: cddbd v1.4b41PL3 Copyright (c) Steve Scherf et al.
# Submitted via: audiograbber 1.80
#
DISCID=9209590c
DTITLE=Bobby Bare - Hard Time Hungrys
DYEAR=1900
DGENRE=
TTITLE0=Hard Time Hungrys
TTITLE1=The Farmer Feeds Us All
TTITLE2=Alimony
TTITLE3=Two For A Dollar
TTITLE4=Back Home In Huntsville Again
TTITLE5=Daddy´s Been Around The House Too Long
TTITLE6=Warm And Free
TTITLE7=Able Bodied Man
TTITLE8=$100.000 In Pennies
TTITLE9=Bottles And Boxes
TTITLE10=Truck Driver, Truck Driver
TTITLE11=The Unemployment Line
EXTD=
EXTT0=
EXTT1=
EXTT2=
EXTT3=
EXTT4=
EXTT5=
EXTT6=
EXTT7=
EXTT8=
EXTT9=
EXTT10=
EXTT11=
PLAYORDER=
